ffmpeg version 3.4.8-0ubuntu0.2 Copyright (c) 2000-2020 the FFmpeg developers
  built with gcc 7 (Ubuntu 7.5.0-3ubuntu1~18.04)
  configuration: --prefix=/usr --extra-version=0ubuntu0.2 --toolchain=hardened --libdir=/usr/lib/x86_64-linux-gnu --incdir=/usr/include/x86_64-linux-gnu --enable-gpl --disable-stripping --enable-avresample --enable-avisynth --enable-gnutls --enable-ladspa --enable-libass --enable-libbluray --enable-libbs2b --enable-libcaca --enable-libcdio --enable-libflite --enable-libfontconfig --enable-libfreetype --enable-libfribidi --enable-libgme --enable-libgsm --enable-libmp3lame --enable-libmysofa --enable-libopenjpeg --enable-libopenmpt --enable-libopus --enable-libpulse --enable-librubberband --enable-librsvg --enable-libshine --enable-libsnappy --enable-libsoxr --enable-libspeex --enable-libssh --enable-libtheora --enable-libtwolame --enable-libvorbis --enable-libvpx --enable-libwavpack --enable-libwebp --enable-libx265 --enable-libxml2 --enable-libxvid --enable-libzmq --enable-libzvbi --enable-omx --enable-openal --enable-opengl --enable-sdl2 --enable-libdc1394 --enable-libdrm --enable-libiec61883 --enable-chromaprint --enable-frei0r --enable-libopencv --enable-libx264 --enable-shared
  libavutil      55. 78.100 / 55. 78.100
  libavcodec     57.107.100 / 57.107.100
  libavformat    57. 83.100 / 57. 83.100
  libavdevice    57. 10.100 / 57. 10.100
  libavfilter     6.107.100 /  6.107.100
  libavresample   3.  7.  0 /  3.  7.  0
  libswscale      4.  8.100 /  4.  8.100
  libswresample   2.  9.100 /  2.  9.100
  libpostproc    54.  7.100 / 54.  7.100
[rawvideo @ 0x557a3d5c8a20] Estimating duration from bitrate, this may be inaccurate
Input #0, rawvideo, from '../../SVC-Encoder-20220109T061506Z-001/SVC-Encoder/Dataset/RollerCoaster/ERP_8x8/tile_yuv/Tile_36_480x240.yuv':
  Duration: 00:00:10.00, start: 0.000000, bitrate: 41472 kb/s
    Stream #0:0: Video: rawvideo (I420 / 0x30323449), yuv420p, 480x240, 41472 kb/s, 30 tbr, 30 tbn, 30 tbc
Stream mapping:
  Stream #0:0 -> #0:0 (rawvideo (native) -> h264 (libx264))
Press [q] to stop, [?] for help
[libx264 @ 0x557a3d5d5c60] using cpu capabilities: MMX2 SSE2Fast LZCNT SSSE3 SSE4.2 AVX
[libx264 @ 0x557a3d5d5c60] profile High, level 2.1
Output #0, rawvideo, to 'RollerCoaster_Tile_36_480x240_x264_QP_32.h264':
  Metadata:
    encoder         : Lavf57.83.100
    Stream #0:0: Video: h264 (libx264), yuv420p, 480x240, q=-1--1, 30 fps, 30 tbn, 30 tbc
    Metadata:
      encoder         : Lavc57.107.100 libx264
    Side data:
      cpb: bitrate max/min/avg: 0/0/0 buffer size: 0 vbv_delay: -1
frame=  167 fps=0.0 q=38.0 PSNR=Y:nan U:nan V:nan *:nan size=      74kB time=00:00:04.13 bitrate= 147.3kbits/s speed=8.23x    frame=  300 fps=0.0 q=38.0 LPSNR=Y:inf U:inf V:inf *:inf size=     169kB time=00:00:09.93 bitrate= 139.4kbits/s speed=10.4x    
video:169kB audio:0kB subtitle:0kB other streams:0kB global headers:0kB muxing overhead: 0.000000%
[libx264 @ 0x557a3d5d5c60] frame I:2     Avg QP:30.52  size:  6624  PSNR Mean Y:38.04 U:42.41 V:45.98 Avg:39.26 Global:39.26
[libx264 @ 0x557a3d5d5c60] frame P:76    Avg QP:31.81  size:  1362  PSNR Mean Y:36.56 U:42.67 V:45.82 Avg:37.94 Global:37.91
[libx264 @ 0x557a3d5d5c60] frame B:222   Avg QP:37.45  size:   254  PSNR Mean Y:36.28 U:42.64 V:45.82 Avg:37.68 Global:37.66
[libx264 @ 0x557a3d5d5c60] consecutive B-frames:  1.0%  0.7%  1.0% 97.3%
[libx264 @ 0x557a3d5d5c60] mb I  I16..4: 23.3% 50.1% 26.6%
[libx264 @ 0x557a3d5d5c60] mb P  I16..4:  1.2%  2.8%  0.2%  P16..4: 31.5% 16.9%  5.3%  0.0%  0.0%    skip:42.0%
[libx264 @ 0x557a3d5d5c60] mb B  I16..4:  0.0%  0.0%  0.0%  B16..8: 30.3%  2.9%  0.1%  direct: 0.1%  skip:66.6%  L0:38.3% L1:57.2% BI: 4.4%
[libx264 @ 0x557a3d5d5c60] 8x8 transform intra:60.3% inter:71.2%
[libx264 @ 0x557a3d5d5c60] coded y,uvDC,uvAC intra: 27.1% 39.4% 15.7% inter: 4.4% 4.6% 0.0%
[libx264 @ 0x557a3d5d5c60] i16 v,h,dc,p: 24% 38% 27% 11%
[libx264 @ 0x557a3d5d5c60] i8 v,h,dc,ddl,ddr,vr,hd,vl,hu: 13%  9% 61%  1%  2%  6%  5%  1%  2%
[libx264 @ 0x557a3d5d5c60] i4 v,h,dc,ddl,ddr,vr,hd,vl,hu: 18% 13% 16%  2% 14% 16% 15%  2%  4%
[libx264 @ 0x557a3d5d5c60] i8c dc,h,v,p: 66% 15% 16%  4%
[libx264 @ 0x557a3d5d5c60] Weighted P-Frames: Y:0.0% UV:0.0%
[libx264 @ 0x557a3d5d5c60] ref P L0: 63.5% 18.3% 14.6%  3.6%
[libx264 @ 0x557a3d5d5c60] ref B L0: 90.3%  8.4%  1.3%
[libx264 @ 0x557a3d5d5c60] ref B L1: 93.1%  6.9%
[libx264 @ 0x557a3d5d5c60] PSNR Mean Y:36.358 U:42.648 V:45.824 Avg:37.755 Global:37.732 kb/s:138.45
